<svg xmlns="http://www.w3.org/2000/svg" viewBox="0 0 200 200">
  <title>Untitled-1</title>
  <g>
    <path d="M24.315,175.921v-27.9H34.559c5.7,0,9.247,3.508,9.247,9.088v9.726c0,5.54-3.547,9.088-9.247,9.088H24.315Zm5.341-4.743h4.9c2.511,0,3.866-1.634,3.866-4.823v-8.769c0-3.189-1.355-4.823-3.866-4.823h-4.9v18.415Z" fill="#353c43"/>
    <path d="M68.646,163.206c0-5.222,3.309-8.41,8.689-8.41,5.341,0,8.649,3.189,8.649,8.41v4.7c0.04,5.222-3.308,8.41-8.649,8.41-5.381,0-8.689-3.189-8.689-8.41v-4.7Zm5.1,4.265c0,2.91,1.276,4.424,3.587,4.424,2.272,0,3.547-1.515,3.547-4.424v-3.827c0-2.91-1.275-4.424-3.547-4.424-2.312,0-3.547,1.515-3.547,4.424Z" fill="#353c43"/>
    <path d="M98.672,176.479c-5.062,0-8.769-3.348-8.769-8.61v-11.8c0-5.261,3.707-8.61,8.769-8.61a10.517,10.517,0,0,1,7.414,2.671l-1.355,1.794a8.8,8.8,0,0,0-6.059-2.112c-3.707,0-6.3,2.471-6.3,6.816v10.682c0,4.345,2.591,6.816,6.3,6.816a8.8,8.8,0,0,0,6.059-2.112l1.355,1.793A10.516,10.516,0,0,1,98.672,176.479Z" fill="#353c43"/>
    <path d="M110.494,175.921V146.027h2.312v29.894h-2.312Z" fill="#353c43"/>
    <path d="M118.079,162.887c0-5.062,3.029-8.091,7.852-8.091s7.812,3.029,7.812,8.091v5.341c-0.04,5.062-2.989,8.092-7.812,8.092s-7.852-3.029-7.852-8.092v-5.341Zm2.312,4.863c0,4.185,1.993,6.337,5.54,6.337s5.461-2.152,5.5-6.337v-4.385c0-4.185-1.953-6.338-5.5-6.338s-5.54,2.153-5.54,6.338v4.385Z" fill="#353c43"/>
    <path d="M145.422,176.32c-4.584,0-6.5-2.79-6.5-7.812V155.194h2.312v12.715c0,4.146.957,6.338,4.345,6.338,2.631,0,4.7-1.834,6.059-3.627V155.194h2.312v20.727h-1.913l-0.319-2.631A8.824,8.824,0,0,1,145.422,176.32Z" fill="#353c43"/>
    <path d="M172.729,173.848a8.5,8.5,0,0,1-6.019,2.472c-4.9,0-7.454-3.029-7.454-8.092v-5.54c0-5.022,2.431-7.892,7.174-7.892a14,14,0,0,1,5.979,1.235v-10h2.312v29.894h-1.714Zm-0.319-15.585a13.317,13.317,0,0,0-5.939-1.276c-3.587,0-4.942,2.232-4.942,6.258v4.5c0,4.185,1.515,6.337,5.1,6.337a6.627,6.627,0,0,0,5.78-2.79V158.263Z" fill="#353c43"/>
    <path d="M64.437,175.92H60.052l-0.284-1.99a8.03,8.03,0,0,1-5.888,2.4c-3.977,0-6.944-2.834-6.944-6.221,0-8.814,12.194-8.883,12.194-8.883,0-.68-0.967-2.765-5.357-2.765a13.015,13.015,0,0,0-3.792.7l-0.99-2.737a16.817,16.817,0,0,1,6.9-1.626c5.4,0,8.551,2.252,8.551,7.4V175.92Zm-9.487-3.6a5.381,5.381,0,0,0,4.289-2.372l0.021-5.653c-0.83,0-7.107.538-7.107,5.309A2.626,2.626,0,0,0,54.951,172.323Z" fill="#353c43"/>
  </g>
  <polygon points="99.911 45.844 124.066 33.932 99.801 23.343 75.535 33.821 99.911 45.844" fill="#16e46a"/>
  <polygon points="75.094 78.492 73.881 58.859 91.528 50.035 66.601 37.682 50.498 44.741 52.593 63.602 75.094 78.492" fill="#16e46a"/>
  <polygon points="147.008 63.491 149.324 44.741 133 37.682 108.294 50.035 126.162 58.859 124.728 78.492 147.008 63.491" fill="#16e46a"/>
  <polygon points="124.066 87.867 122.301 113.456 142.817 98.015 145.905 73.198 124.066 87.867" fill="#16e46a"/>
  <polygon points="75.645 87.867 53.807 73.198 56.674 98.125 77.3 113.456 75.645 87.867" fill="#16e46a"/>
  <polygon points="116.345 93.051 100.021 104.081 83.477 93.051 85.131 119.302 99.911 130.332 114.47 119.302 116.345 93.051" fill="#16e46a"/>
</svg>
